<svg width="156" height="44" viewBox="0 0 156 44" fill="none" xmlns="http://www.w3.org/2000/svg">
<path opacity="0.3" d="M21.84 44C33.9019 44 43.68 34.1503 43.68 22C43.68 9.84974 33.9019 0 21.84 0C9.7781 0 0 9.84974 0 22C0 34.1503 9.7781 44 21.84 44Z" fill="white"/>
<path d="M30.5023 9.42871H12.5503C10.8199 9.42871 9.35999 10.8675 9.35999 12.6936V30.6784C9.35999 32.4492 10.7659 33.888 12.5503 33.888H30.5023C32.2326 33.888 33.6385 32.4492 33.6385 30.6784V12.6383C33.6385 10.8675 32.2326 9.42871 30.5023 9.42871ZM21.5263 23.7612C17.0923 23.7612 13.4154 20.2749 13.0369 15.7372C12.9828 14.7411 13.6858 13.9111 14.605 13.8557C15.5242 13.8004 16.3894 14.5198 16.4435 15.4605C16.6598 18.2827 19.0389 20.4409 21.8507 20.2196C24.338 20.0536 26.3387 18.0061 26.5009 15.4605C26.555 14.4644 27.3661 13.7451 28.3394 13.8004C28.826 13.8557 29.2586 14.0771 29.583 14.4091C29.9075 14.7411 30.0156 15.2392 30.0156 15.6819C29.6371 20.2749 25.9602 23.7612 21.5263 23.7612Z" fill="white"/>
<path d="M69.4314 10.8394V31.9943C69.4854 32.376 69.2154 32.7031 68.8374 32.7577C68.7834 32.7577 68.7294 32.7577 68.6754 32.7577H66.0835C65.7055 32.8122 65.3815 32.5396 65.3275 32.1579C65.3275 32.1034 65.3275 32.0489 65.3275 31.9943V30.8493C64.1936 32.3215 62.4656 33.1938 60.0897 33.1938C55.7699 33.1938 52.26 29.4863 52.26 24.6337C52.26 19.7812 55.8239 16.0736 60.0897 16.0736C62.4116 16.0736 64.1396 16.946 65.3275 18.4181V10.7849C65.2735 10.4033 65.5435 10.0761 65.9215 10.0216C65.9755 10.0216 66.0295 10.0216 66.0835 10.0216H68.6754C69.0534 9.96707 69.3774 10.2397 69.4314 10.6213C69.4854 10.7304 69.4854 10.7849 69.4314 10.8394ZM65.3275 24.6883C65.3275 22.1802 63.3296 20.2174 60.8997 20.2174C58.4158 20.2174 56.4718 22.2347 56.4718 24.6883C56.4718 27.1963 58.4698 29.1591 60.8997 29.1591C63.3296 29.1591 65.3275 27.1963 65.3275 24.6883Z" fill="white"/>
<path d="M84.4967 16.3082C84.8747 16.2537 85.1987 16.5263 85.2527 16.908C85.2527 16.9625 85.2527 17.017 85.2527 17.0715V31.7382C85.3067 32.1199 85.0367 32.447 84.6587 32.5015C84.6047 32.5015 84.5507 32.5015 84.4967 32.5015H81.8508C81.4729 32.556 81.1489 32.2834 81.0949 31.9018C81.0949 31.8472 81.0949 31.7927 81.0949 31.7382V30.8113C80.1769 32.1744 78.719 32.9377 76.7211 32.9377C73.7512 32.9377 71.4833 30.6477 71.4833 26.6676V17.0715C71.4293 16.6899 71.6993 16.3627 72.0772 16.3082C72.1312 16.3082 72.1852 16.3082 72.2392 16.3082H74.8851C75.2631 16.2537 75.5871 16.5263 75.6411 16.908C75.6411 16.9625 75.6411 17.017 75.6411 17.0715V26.3404C75.6411 28.1942 76.7211 29.0666 78.179 29.0666C79.7989 29.0666 81.0949 28.1397 81.0949 25.6862V17.0715C81.0409 16.6899 81.3109 16.3627 81.6889 16.3082C81.7428 16.3082 81.7968 16.3082 81.8508 16.3082H84.4967V16.3082Z" fill="white"/>
<path d="M101.128 32.8123H98.1042C97.7263 32.8123 97.4023 32.6488 97.1863 32.3216L91.8945 25.4517V31.9945C91.9485 32.3762 91.6785 32.7033 91.3005 32.7578C91.2465 32.7578 91.1925 32.7578 91.1385 32.7578H88.4926C88.1146 32.8123 87.7906 32.5397 87.7366 32.1581C87.7366 32.1035 87.7366 32.049 87.7366 31.9945V10.8396C87.6826 10.4579 87.9526 10.1308 88.3306 10.0763C88.3846 10.0763 88.4386 10.0763 88.4926 10.0763H91.1385C91.5165 10.0218 91.8405 10.2944 91.8945 10.676C91.8945 10.7306 91.8945 10.7851 91.8945 10.8396V23.707L96.8623 17.0552C97.0783 16.7281 97.4023 16.5645 97.7803 16.5645H100.858C101.506 16.5645 101.722 17.0007 101.344 17.4914L95.9443 24.5794L101.668 31.8309C101.992 32.3762 101.776 32.8123 101.128 32.8123Z" fill="white"/>
<path d="M109.66 16.1284C113.224 16.1284 116.194 18.2548 116.194 22.5076V32.0491C116.248 32.4308 115.978 32.7579 115.6 32.8124C115.546 32.8124 115.492 32.8124 115.438 32.8124H112.9C112.522 32.8669 112.198 32.5943 112.144 32.2127C112.144 32.1581 112.144 32.1036 112.144 32.0491V31.3948C111.226 32.5398 109.822 33.2486 107.77 33.2486C104.908 33.2486 102.37 31.5584 102.37 28.178C102.37 24.7976 104.908 23.0528 107.77 23.0528C109.336 22.9438 110.902 23.489 112.144 24.4704V22.7257C112.144 20.8174 111.172 19.9995 109.66 19.9995C108.472 19.9995 107.554 20.4902 107.284 21.3626C107.122 21.7988 106.96 22.0714 106.474 22.0714H103.936C103.558 22.1259 103.234 21.8533 103.18 21.4717C103.18 21.4171 103.18 21.3081 103.18 21.2536C103.558 17.9822 106.366 16.1284 109.66 16.1284ZM112.144 28.1235C112.144 26.8694 111.01 26.1061 109.228 26.1061C107.446 26.1061 106.528 26.9785 106.528 28.1235C106.528 29.2684 107.392 30.1408 109.228 30.1408C111.064 30.1408 112.144 29.323 112.144 28.1235Z" fill="white"/>
<path d="M125.373 16.1284C128.937 16.1284 131.907 18.2548 131.907 22.5076V32.0491C131.961 32.4308 131.691 32.7579 131.313 32.8124C131.259 32.8124 131.205 32.8124 131.151 32.8124H128.613C128.235 32.8669 127.911 32.5943 127.857 32.2127C127.857 32.1581 127.857 32.1036 127.857 32.0491V31.3948C126.939 32.5398 125.535 33.2486 123.483 33.2486C120.621 33.2486 118.083 31.5584 118.083 28.178C118.083 24.7976 120.621 23.0528 123.483 23.0528C125.049 22.9438 126.615 23.489 127.857 24.4704V22.7257C127.857 20.8174 126.885 19.9995 125.373 19.9995C124.185 19.9995 123.267 20.4902 122.997 21.3626C122.835 21.7988 122.673 22.0714 122.187 22.0714H119.595C119.217 22.1259 118.893 21.8533 118.839 21.4717C118.839 21.4171 118.839 21.3081 118.839 21.2536C119.271 17.9822 122.079 16.1284 125.373 16.1284ZM127.857 28.1235C127.857 26.8694 126.723 26.1061 124.941 26.1061C123.159 26.1061 122.241 26.9785 122.241 28.1235C122.241 29.2684 123.105 30.1408 124.941 30.1408C126.777 30.1408 127.857 29.323 127.857 28.1235Z" fill="white"/>
<path d="M142.544 16.1284C145.514 16.1284 147.782 18.4729 147.782 22.3986V31.9946C147.836 32.3763 147.566 32.7034 147.188 32.7579C147.134 32.7579 147.08 32.7579 147.026 32.7579H144.38C144.002 32.8124 143.678 32.5398 143.624 32.1582C143.624 32.1036 143.624 32.0491 143.624 31.9946V22.7257C143.624 20.8719 142.544 19.9995 141.087 19.9995C139.467 19.9995 138.171 20.9264 138.171 23.38V31.9946C138.225 32.3763 137.955 32.7034 137.577 32.7579C137.523 32.7579 137.469 32.7579 137.415 32.7579H134.769C134.391 32.8124 134.067 32.5398 134.013 32.1582C134.013 32.1036 134.013 32.0491 134.013 31.9946V17.3279C133.959 16.9463 134.229 16.6191 134.607 16.5646C134.661 16.5646 134.715 16.5646 134.769 16.5646H137.415C137.793 16.5101 138.117 16.7827 138.171 17.1644C138.171 17.2189 138.171 17.2734 138.171 17.3279V18.2003C139.035 16.8917 140.547 16.1284 142.544 16.1284Z" fill="white"/>
<path d="M151.724 8.11328C149.51 8.11328 147.782 9.91254 147.782 12.0935C147.782 14.2744 149.564 16.0736 151.778 16.0736C153.938 16.0736 155.72 14.2744 155.72 12.0935C155.72 9.91254 153.938 8.11328 151.724 8.11328ZM151.724 8.76756C153.56 8.76756 155.072 10.2942 155.072 12.148C155.072 14.0018 153.56 15.5284 151.724 15.5284C149.888 15.5284 148.376 14.0018 148.376 12.148C148.376 10.2397 149.888 8.76756 151.724 8.76756ZM150.482 10.2942V14.0018H151.076V12.6387H151.886L152.75 14.0018H153.344L152.48 12.5842L152.75 12.5296C152.912 12.4751 153.074 12.3661 153.182 12.257C153.29 12.148 153.344 12.0389 153.398 11.8754C153.452 11.7663 153.452 11.6028 153.452 11.4937C153.452 11.3847 153.452 11.2211 153.398 11.112C153.344 10.9485 153.29 10.8394 153.182 10.7304C153.074 10.6213 152.912 10.5123 152.75 10.4578C152.534 10.3487 152.264 10.2942 152.048 10.3487H150.482V10.2942ZM151.13 10.7849H151.94C152.048 10.7849 152.156 10.7849 152.264 10.7849C152.372 10.7849 152.48 10.8394 152.534 10.894C152.642 10.9485 152.696 11.003 152.75 11.0575C152.804 11.1666 152.858 11.2756 152.858 11.3847C152.858 11.4937 152.858 11.6028 152.75 11.7118C152.696 11.8208 152.642 11.8754 152.534 11.9299L152.21 12.0389C152.102 12.0389 151.994 12.0935 151.886 12.0389H151.076L151.13 10.7849Z" fill="white"/>
</svg>
